<svg id="f89af28b-111d-4872-814f-cbbc169855b4" data-name="Layer 1" xmlns="http://www.w3.org/2000/svg" viewBox="0 0 867.108 500.057"><defs><linearGradient id="feb2277d-7772-4d61-b1af-dc7db61f73e8" x1="916.588" y1="601.918" x2="916.588" y2="667.798" gradientTransform="matrix(1 0 0 -1 -166.446 702.028)" gradientUnits="userSpaceOnUse"><stop offset="0" stop-opacity=".12"/><stop offset=".55" stop-opacity=".09"/><stop offset="1" stop-opacity=".02"/></linearGradient><clipPath id="a1708186-1525-433e-878d-7c35f03ac629" transform="translate(-166.446 -199.972)"><path d="M695.148 283.978l-6.77-16.49-90.27 37.06a11.15 11.15 0 00-6.91 10.31v97.53h17.83v-93.03z" fill="none"/></clipPath></defs><path d="M14.955 192.036h285.198a14 14 0 0114 14v22.238H.955v-22.238a14 14 0 0114-14z" fill="#3f3d56"/><path d="M461.186 389.42a12.842 12.842 0 00-4.14.704 7.751 7.751 0 00-15.273 1.884c0 .038.01.074.01.113a13.309 13.309 0 00-2.856.591 7.794 7.794 0 00-3.838-4.946 12.986 12.986 0 005.601-6.131c6.333-.103 11.436-4.681 11.436-10.335 0-5.718-5.215-10.353-11.648-10.353a12.842 12.842 0 00-4.139.704 7.74 7.74 0 10-14.88 4.207c-.31.215-.599.457-.888.698a7.35 7.35 0 00-5.293-1.762 12.891 12.891 0 00-25.064 4.014 13.248 13.248 0 00-3.055.609 7.764 7.764 0 00-.446-1.278 9.727 9.727 0 003.291-7.192c0-5.719-5.214-10.354-11.647-10.354a12.842 12.842 0 00-4.14.705 7.74 7.74 0 10-14.88 4.206 12.909 12.909 0 00-5.533 10.015c-.109.098-.234.176-.338.28a9.222 9.222 0 00.3-2.264c0-5.718-5.214-10.354-11.647-10.354a12.842 12.842 0 00-4.14.705 7.74 7.74 0 10-14.88 4.207 12.908 12.908 0 000 21.238 7.06 7.06 0 000 4.646 13.07 13.07 0 00-3.312 3.343 7.717 7.717 0 00-15.12 1.307 12.332 12.332 0 00-3.328-1.344 13.011 13.011 0 004.754-5.648c6.333-.103 11.436-4.681 11.436-10.335 0-5.718-5.215-10.353-11.648-10.353a12.842 12.842 0 00-4.14.704 7.74 7.74 0 10-14.88 4.207c-.166.115-.315.251-.476.374-.404-.038-.796-.109-1.211-.109a12.842 12.842 0 00-4.14.705c-.048-.195-.129-.376-.192-.565a7.628 7.628 0 00-7.927-9.234 12.93 12.93 0 10-20.32 14.405 13.392 13.392 0 00-2.621.571 7.695 7.695 0 00-12.326-4.163 12.103 12.103 0 00-9.42-4.307 12.842 12.842 0 00-4.139.705 7.74 7.74 0 10-14.88 4.206 12.914 12.914 0 00-5.57 10.62c0 .04.011.076.012.116a10.736 10.736 0 00-5.446.588 7.74 7.74 0 10-14.88 4.207 12.889 12.889 0 0010.187 23.217 12.896 12.896 0 0024.367 3.31 12.9 12.9 0 0023.504-.396 12.88 12.88 0 004.457-.863 12.896 12.896 0 0024.015.863 12.661 12.661 0 005.43-1.344 12.883 12.883 0 0023.043-1.245 13.048 13.048 0 002.07-.216 12.93 12.93 0 0023.814.216 12.882 12.882 0 003.008-.444 12.618 12.618 0 0014.015-5.352 12.936 12.936 0 0024.391 8.385 12.662 12.662 0 005.43-1.344 12.883 12.883 0 0023.043-1.245 12.661 12.661 0 005.429-1.343 12.807 12.807 0 0019.186 3.719 12.887 12.887 0 0023.053 5.345 12.854 12.854 0 0019.63-5.132c6.333-.103 11.437-4.682 11.437-10.335 0-5.718-5.215-10.354-11.648-10.354zm-231.348-5.343c-.013.063-.023.127-.035.19-.095-.004-.184-.025-.28-.025a7.708 7.708 0 00-1.153.117c.02-.047.05-.089.07-.136a12.888 12.888 0 001.398-.146zm108.142-4.307c-.038-.15-.103-.289-.15-.436a13.005 13.005 0 004.5-5.464 12.117 12.117 0 009-4.075 7.789 7.789 0 00-.152 1.505 7.68 7.68 0 00.393 2.323 12.99 12.99 0 00-4.811 6.308 12.702 12.702 0 00-8.78-.16zm77.523.965c-.005-.158.015-.322.004-.48a7.727 7.727 0 00.987-.066 12.829 12.829 0 002.466 4.568c-.245.068-.502.11-.74.19a7.806 7.806 0 00-2.717-4.212z" transform="translate(-166.446 -199.972)" fill="#f9a825"/><path d="M193.475 404.95a27.026 27.026 0 00-26.989 28.477l17.528 241.02a27.024 27.024 0 0026.988 25.581h225.996a27.024 27.024 0 0026.988-25.58l17.528-241.02a27.026 27.026 0 00-26.989-28.478z" transform="translate(-166.446 -199.972)" fill="#3f3d56"/><path fill="#6c63ff" d="M39.781 204.978h15.53v295.079h-15.53zm44.003 0h15.53v295.079h-15.53zm44.003 0h15.53v295.079h-15.53zm44.003 0h15.53v295.079h-15.53zm44.003 0h15.53v295.079h-15.53zm44.003 0h15.53v295.079h-15.53z"/><path id="a971f948-84ae-4583-a462-a09341ab7c50" data-name="2572ddba-42e8-4159-9036-35cbff74dfb7" d="M695.148 283.978l-6.77-16.49-90.27 37.06a11.15 11.15 0 00-6.91 10.31v97.53h17.83v-93.03z" transform="translate(-166.446 -199.972)" fill="#3f3d56"/><g clip-path="url(#a1708186-1525-433e-878d-7c35f03ac629)" fill="#6c63ff"><path d="M497.662 49.597h19.44v61.57h-19.44zm-30.78 12.96h19.44v61.57h-19.44zm-10.54 52.66l-13.77 4.05-5.67-65.62h19.44v61.57z"/><path d="M406.112 122.507h61.57v19.44h-61.57zm.01 26.74h61.57v19.44h-61.57zm-.01 26.74h61.57v19.44h-61.57z"/></g><path fill="#3f3d56" d="M497.662 500.057h-119.09l-29.17-291.67h174.19l-25.93 291.67z"/><path fill="#3f3d56" d="M337.252 203.527h199.3v19.44h-199.3z"/><circle cx="739.312" cy="67.17" r="66.98" fill="#3ad29f"/><path fill="url(#feb2277d-7772-4d61-b1af-dc7db61f73e8)" d="M783.662 67.17l-67.04 32.94V34.23l67.04 32.94z"/><path fill="#fff" d="M779.632 67.17l-58.99 28.99V38.18l58.99 28.99z"/><path d="M844.258 274.832a67 67 0 01118.62-42.66 67 67 0 10-108.77 77.64 66.66 66.66 0 01-9.85-34.98z" transform="translate(-166.446 -199.972)" fill="#fff" opacity=".2" style="isolation:isolate"/><path d="M893.994 614.78a2.95 2.95 0 00-2.947 2.944v79.36a2.95 2.95 0 002.947 2.944h136.614a2.95 2.95 0 002.946-2.944v-79.36a2.95 2.95 0 00-2.946-2.944z" transform="translate(-166.446 -199.972)" fill="#3f3d56"/><path d="M909.26 621.779a5.494 5.494 0 00-5.487 5.488v60.275a5.494 5.494 0 005.488 5.488h106.08a5.494 5.494 0 005.488-5.488v-60.275a5.494 5.494 0 00-5.488-5.488z" transform="translate(-166.446 -199.972)" fill="#ff6584"/><path fill="#3f3d56" d="M657.922 440.95h71.162v16.483h-71.162z"/><path d="M700.54 614.78a2.949 2.949 0 00-2.945 2.944v79.36a2.949 2.949 0 002.944 2.944h136.616a2.949 2.949 0 002.944-2.944v-79.36a2.949 2.949 0 00-2.944-2.944z" transform="translate(-166.446 -199.972)" fill="#3f3d56"/><path d="M715.809 621.779a5.495 5.495 0 00-5.49 5.488v60.275a5.495 5.495 0 005.49 5.488h106.077a5.495 5.495 0 005.49-5.488v-60.275a5.495 5.495 0 00-5.49-5.488z" transform="translate(-166.446 -199.972)" fill="#6c63ff"/></svg>